<svg width="16" height="16" viewBox="0 0 16 16" fill="none" xmlns="http://www.w3.org/2000/svg">
<path d="M13.3327 14.6667H2.66602V13.3333C2.66602 12.4493 3.01721 11.6014 3.64233 10.9763C4.26745 10.3512 5.11529 9.99999 5.99935 9.99999H9.99935C10.8834 9.99999 11.7312 10.3512 12.3564 10.9763C12.9815 11.6014 13.3327 12.4493 13.3327 13.3333V14.6667ZM7.99935 8.66666C7.47406 8.66666 6.95392 8.56319 6.46862 8.36217C5.98331 8.16116 5.54236 7.86652 5.17092 7.49508C4.79949 7.12365 4.50485 6.68269 4.30383 6.19739C4.10281 5.71209 3.99935 5.19194 3.99935 4.66666C3.99935 4.14137 4.10281 3.62123 4.30383 3.13592C4.50485 2.65062 4.79949 2.20966 5.17092 1.83823C5.54236 1.4668 5.98331 1.17216 6.46862 0.971138C6.95392 0.77012 7.47406 0.666656 7.99935 0.666656C9.06021 0.666657 10.0776 1.08808 10.8278 1.83823C11.5779 2.58837 11.9993 3.60579 11.9993 4.66666C11.9993 5.72752 11.5779 6.74494 10.8278 7.49508C10.0776 8.24523 9.06021 8.66666 7.99935 8.66666Z" fill="#444"/>
</svg>
